<?xml version="1.0" standalone="no"?>
<!DOCTYPE svg PUBLIC "-//W3C//DTD SVG 20010904//EN"
 "http://www.w3.org/TR/2001/REC-SVG-20010904/DTD/svg10.dtd">
<svg version="1.0" xmlns="http://www.w3.org/2000/svg"
 width="512.000000pt" height="512.000000pt" viewBox="0 0 512.000000 512.000000"
 preserveAspectRatio="xMidYMid meet">
<metadata>
Created by potrace 1.14, written by Peter Selinger 2001-2017
</metadata>
<g transform="translate(0.000000,512.000000) scale(0.100000,-0.100000)"
fill="#000000" stroke="none">
<path d="M2485 4707 c-164 -80 -194 -264 -63 -382 51 -47 95 -65 156 -65 117
0 217 71 247 175 21 71 13 121 -28 182 -70 103 -204 142 -312 90z"/>
<path d="M2075 4495 c-263 -59 -499 -152 -693 -273 -512 -318 -845 -789 -969
-1369 -25 -120 -27 -144 -27 -363 1 -215 3 -247 28 -369 128 -632 539 -1165
1125 -1461 170 -85 444 -174 636 -206 136 -23 581 -27 710 -6 104 17 316 72
430 112 411 145 813 459 1064 832 72 107 192 357 234 487 185 568 93 1211
-244 1713 -296 440 -777 769 -1304 891 -192 45 -173 46 -181 -10 -3 -26 -13
-65 -22 -86 -8 -21 -13 -40 -11 -42 2 -2 47 -11 99 -20 234 -41 571 -183 763
-322 217 -156 423 -377 551 -590 101 -169 187 -399 227 -607 19 -99 21 -134
16 -360 -4 -206 -9 -267 -26 -339 -57 -244 -165 -487 -303 -681 -85 -120 -297
-336 -418 -425 -286 -212 -630 -343 -998 -382 -178 -18 -469 -7 -612 24 -451
99 -765 268 -1055 569 -228 236 -373 484 -460 783 -46 161 -55 240 -55 496 0
215 2 251 24 353 57 270 176 531 339 746 108 142 320 338 479 443 93 61 283
159 390 201 90 35 312 92 421 107 83 11 88 14 82 33 -7 21 -23 92 -31 134 -6
30 -25 28 -209 -13z"/>
<path d="M2588 4163 c-38 -6 -58 -39 -58 -95 0 -25 -4 -57 -9 -70 -14 -36 -76
-95 -108 -101 -15 -3 -45 -20 -65 -37 -30 -25 -38 -38 -38 -65 0 -38 9 -34
-135 -55 -253 -38 -510 -142 -695 -281 -525 -396 -708 -1066 -441 -1615 32
-65 75 -146 96 -179 53 -82 198 -230 294 -299 205 -147 503 -249 768 -261 65
-3 137 -8 159 -11 l41 -5 8 -102 c10 -146 21 -191 61 -238 19 -22 34 -51 34
-63 0 -23 26 -66 39 -66 4 0 16 19 26 43 9 23 24 53 32 67 35 61 46 103 60
225 8 71 18 137 22 145 5 8 62 31 127 51 119 36 266 103 359 165 28 18 91 67
140 110 84 71 90 80 97 123 8 60 10 171 2 171 -4 0 -56 -47 -116 -105 -135
-130 -285 -231 -406 -275 -91 -33 -179 -56 -186 -49 -2 2 5 105 15 229 10 124
27 387 39 585 11 198 27 443 35 545 8 102 19 327 25 500 6 173 13 330 16 347
l5 33 77 -39 c93 -47 128 -73 211 -154 100 -97 186 -239 236 -387 21 -63 23
-65 58 -68 l37 -3 0 440 c0 439 0 441 -21 441 -35 0 -56 -18 -63 -55 -9 -46
-67 -110 -112 -125 -43 -14 -70 -10 -216 36 -198 63 -218 72 -218 100 0 47
-42 219 -61 250 -13 22 -19 50 -19 92 0 75 -17 98 -80 105 -25 2 -57 2 -72 0z
m110 -36 c6 -7 14 -40 18 -75 l7 -62 -88 0 -87 0 4 61 c3 45 10 65 23 75 24
17 109 18 123 1z m43 -174 c4 -4 18 -53 30 -108 21 -96 21 -113 15 -465 -4
-201 -11 -430 -16 -510 -5 -80 -19 -307 -30 -505 -32 -568 -84 -1223 -99
-1238 -15 -15 -96 -4 -96 13 0 8 9 16 20 18 75 11 91 32 25 32 -58 0 -54 27 5
36 25 3 45 10 45 15 0 10 -76 22 -120 17 l-35 -3 -3 -82 -3 -83 81 0 80 0 0
-47 c0 -67 -18 -179 -36 -234 l-15 -47 -57 2 c-50 1 -58 4 -69 26 -24 51 -49
654 -59 1430 -3 261 -10 497 -15 523 -11 59 3 372 31 685 24 259 30 300 71
434 29 94 30 97 62 101 46 7 178 0 188 -10z m-271 -72 c0 -33 -37 -102 -72
-134 l-41 -38 5 -297 c5 -270 5 -292 -8 -242 -19 71 -21 614 -3 653 14 32 119
83 119 58z m-64 -344 c-4 -84 -12 -156 -17 -162 -14 -14 -11 298 2 332 12 28
12 28 18 5 3 -13 2 -91 -3 -175z m-96 -130 c-1 -105 4 -167 19 -239 20 -96 20
-96 1 -164 -28 -97 -26 -144 10 -207 l29 -52 10 -600 c6 -330 11 -660 11 -732
l0 -133 -32 0 c-85 1 -221 47 -325 112 -256 160 -405 552 -405 1068 1 451 146
796 412 977 83 56 243 127 263 116 4 -2 7 -68 7 -146z m-804 -258 c8 -6 14
-22 14 -35 0 -28 -3 -28 50 -9 24 8 45 13 48 10 12 -12 -35 -47 -89 -66 -75
-28 -86 -59 -25 -70 25 -5 32 -27 11 -35 -18 -7 -202 43 -211 58 -5 8 18 53
72 139 23 36 23 37 70 28 26 -5 53 -14 60 -20z m849 -317 c-10 -11 -25 21 -25
54 0 17 6 46 13 65 12 33 12 32 15 -40 2 -40 0 -76 -3 -79z m-1089 55 c2 -7
-2 -32 -11 -56 -21 -59 -19 -81 5 -81 12 0 26 12 35 30 23 44 47 40 43 -7 -3
-32 0 -38 18 -41 17 -2 25 8 45 60 19 49 30 64 48 66 26 4 27 12 -13 -106 -18
-52 -28 -68 -44 -70 -22 -3 -203 25 -211 33 -5 6 22 98 45 153 13 33 31 42 40
19z m-83 -289 c2 -7 2 -41 -1 -75 -5 -62 -4 -63 21 -63 25 0 37 16 37 52 0 13
6 18 17 16 12 -2 17 -13 18 -33 0 -25 4 -31 27 -33 30 -4 36 8 40 88 3 39 6
45 27 48 23 4 24 2 18 -50 -4 -29 -7 -72 -7 -95 l0 -43 -120 0 -120 0 0 63 c0
84 10 137 25 137 8 0 15 -6 18 -12z m197 -291 c0 -13 -16 -42 -35 -64 -45 -53
-39 -73 22 -73 37 0 44 -3 41 -17 -2 -14 -21 -21 -88 -31 -47 -6 -101 -11
-120 -10 l-35 3 -14 83 c-9 61 -10 87 -2 95 6 6 38 13 71 15 56 4 62 3 67 -17
7 -29 18 -26 45 9 26 36 48 39 48 7z m56 -259 c4 -14 1 -25 -10 -33 -21 -16
-20 -26 6 -79 17 -36 28 -46 55 -51 24 -4 33 -11 33 -26 0 -17 -5 -20 -27 -15
-16 3 -64 10 -108 16 -102 14 -147 28 -143 45 3 14 168 164 180 165 4 0 10
-10 14 -22z m164 -300 c22 -24 47 -58 57 -76 17 -32 17 -34 -1 -47 -10 -8 -53
-28 -94 -46 l-75 -31 -44 44 c-24 24 -54 58 -65 77 l-21 34 22 18 c28 23 45
24 62 3 11 -13 10 -17 -4 -25 -15 -9 -15 -13 6 -45 12 -19 32 -37 45 -40 23
-6 107 20 117 36 3 5 -6 27 -21 50 -22 33 -32 40 -59 40 -37 0 -54 24 -27 39
34 20 62 12 102 -31z m950 -1043 c0 -19 -4 -35 -10 -35 -5 0 -10 16 -10 35 0
19 5 35 10 35 6 0 10 -16 10 -35z"/>
<path d="M2577 3753 c-4 -3 -7 -44 -7 -90 l0 -83 30 0 30 0 0 90 c0 88 -1 90
-23 90 -13 0 -27 -3 -30 -7z"/>
<path d="M2517 3433 c-4 -3 -7 -42 -7 -85 0 -77 0 -78 25 -78 23 0 25 4 25 42
l0 43 44 -49 c62 -66 80 -61 84 24 4 83 -3 110 -28 110 -15 0 -21 -9 -26 -41
l-7 -41 -37 41 c-36 39 -58 49 -73 34z"/>
<path d="M2548 3119 c-14 -5 -29 -16 -31 -23 -9 -23 22 -55 63 -67 22 -7 40
-18 40 -26 0 -15 -46 -18 -55 -3 -10 16 -55 12 -55 -5 0 -40 126 -47 155 -9 8
10 15 22 15 27 0 13 -39 41 -72 53 -18 6 -34 16 -36 22 -4 14 34 16 43 2 8
-12 55 -13 55 -1 0 29 -76 48 -122 30z"/>
<path d="M2502 2798 c2 -15 11 -24 26 -26 20 -3 22 -9 22 -63 l0 -59 35 0 35
0 0 60 c0 57 1 60 24 60 30 0 42 16 26 35 -9 11 -35 15 -92 15 -77 0 -79 -1
-76 -22z"/>
<path d="M2556 2494 c-3 -9 -6 -49 -6 -90 0 -71 1 -74 24 -74 31 0 36 15 36
106 0 71 -1 74 -24 74 -13 0 -27 -7 -30 -16z"/>
<path d="M2485 2180 c-3 -5 7 -15 22 -22 39 -17 37 -14 43 -76 4 -49 8 -57 25
-57 17 0 21 10 29 63 8 54 12 63 33 68 13 4 22 11 20 18 -5 14 -163 21 -172 6z"/>
<path d="M2480 1822 c0 -95 52 -138 127 -107 41 17 53 42 53 109 0 53 -1 56
-25 56 -22 0 -25 -4 -25 -39 0 -60 -15 -91 -44 -91 -24 0 -25 3 -28 63 -3 59
-4 62 -30 65 -28 3 -28 3 -28 -56z"/>
<path d="M2475 1560 c-10 -16 4 -30 31 -30 21 0 24 -5 25 -37 2 -69 13 -98 34
-98 17 0 21 8 25 65 5 62 6 65 33 68 20 3 27 8 25 20 -3 14 -18 18 -85 20 -49
2 -84 -1 -88 -8z"/>
<path d="M1390 3085 c-25 -41 -20 -68 12 -63 23 3 71 74 62 90 -13 21 -53 6
-74 -27z"/>
<path d="M1195 2250 c-4 -6 -4 -28 0 -50 7 -39 32 -59 55 -45 11 7 14 64 4 89
-7 18 -49 22 -59 6z"/>
<path d="M1326 1934 c-15 -14 -27 -26 -25 -28 2 -2 23 -6 47 -9 45 -6 53 4 32
44 -14 24 -19 24 -54 -7z"/>
</g>
</svg>
